<svg xmlns="http://www.w3.org/2000/svg" viewBox="0 0 375 667">
  <style>
    @keyframes dash {
      0% { stroke-dashoffset: 0; opacity: 0.2; stroke: #B12197; }
      50% { stroke-dashoffset: 80; opacity: 0.1; stroke: #5361C4; }
      100% { stroke-dashoffset: 160; opacity: 0.2; stroke: #B12197; }
    }

    .dash-animation {
      stroke-dasharray: 80;
      animation: dash 8s linear infinite;
    }
  </style>
  <path class="dash-animation" fill="none" stroke="#d3dcde" d="M184.9 596.76h-44.87v-45.65l45.65 45.65h44.87v45.65h-22.82v-22.83h-22.82v-22.82zm0-480.14h-44.87v45.64l45.65-45.64h44.87V70.97h-22.82V93.8h-22.82v22.83zm-44.87 45.64v45.65h22.83v-22.83h22.82v-22.82h-45.65zm-58.71-45.64V70.97h45.64l-45.64 45.65zM31.2 150.13h-45.64V104.5l45.64 45.64zm293.2 33.84v-45.65h45.64l-45.65 45.65zm45.64-68.39h-45.65V92.76h22.82V69.94h22.83v45.64zm-91.3-22.95V47h22.83v22.82h22.82v22.82h-45.64zm-138.7 458.48v-45.64h22.82v22.82h22.82v22.82h-45.65zm-58.72 45.65v45.65h45.64l-45.64-45.65zM31.2 563.25h-45.64v45.64l45.64-45.64zm293.2-33.84v45.65h45.64l-45.65-45.65zm45.64 68.39h-45.65v22.82h22.82v22.82h22.83V597.8zm-91.3 22.94v45.65h22.83v-22.83h22.82v-22.82h-45.64zm-46.43-240.38h45.64v-22.82h-22.82v-22.82h-22.82v45.64zm-46.63 51.6v-45.64h-22.82v22.82h-22.83v22.83h45.65zm0 0v45.65h-45.65l45.65-45.64zm-148.89 38.8V425.1H13.97v22.82H-8.86v22.82H36.8zM81.32 286.7v45.65H35.67l45.65-45.65zm81.54 11.9v22.8h-22.83l22.83-22.82zM36.79 241.42v45.64H-8.86l45.65-45.64zm45.64 0v-45.65H59.61v22.82H36.79v22.83h45.64zm261.12 61.87v45.65H297.9l45.65-45.65zm45.64 0v-45.65h-22.82v22.83h-22.82v22.82h45.64zm-156.88-49.96h45.64v-22.82h-22.82V207.7h-22.82v45.64zm91.29-22.94v-45.65h-22.82v22.82h-22.83v22.83h45.65zM81.32 431.97v-45.65h45.64l-45.64 45.65zm196.63-5.03v-45.65h45.65l-45.65 45.65zm0-380.73V.56h-45.64l45.65 45.65z" />
</svg>
