<svg xmlns="http://www.w3.org/2000/svg" viewBox="0 0 20.78 19.78"><defs></defs><g id="Layer_2" data-name="Layer 2"><g><g><path  d="M9.78,19.78A9.89,9.89,0,0,1,9.78,0V1.78a8,8,0,0,0-2.93.6l-.07,0V6h3V7.78h-3V12h3v1.78h-3v3.6l.07,0a8,8,0,0,0,2.93.6Zm-6.9-5.83a8.13,8.13,0,0,0,1.94,2.27l.18.14V13.78H2.78ZM2,7.86a7.81,7.81,0,0,0,0,4.05l0,.08H5V7.78H2.07ZM4.82,3.57A8.13,8.13,0,0,0,2.88,5.83L2.78,6H5V3.42Z"/><path d="M15.89,5.78a2.89,2.89,0,1,1,2.89-2.89A2.89,2.89,0,0,1,15.89,5.78Zm0-4A1.11,1.11,0,1,0,17,2.89,1.11,1.11,0,0,0,15.89,1.78Z"/><path d="M13.89,19.78a.89.89,0,0,1-.89-.89V14.78H11.89a.89.89,0,0,1-.89-.89v-3a4.89,4.89,0,0,1,9.78,0v3a.89.89,0,0,1-.89.89H18.78v4.11a.89.89,0,0,1-.89.89Zm2-12a3.11,3.11,0,0,0-3.11,3.11V13h1.11a.89.89,0,0,1,.89.89V18H17V13.89a.89.89,0,0,1,.89-.89H19V10.89A3.11,3.11,0,0,0,15.89,7.78Z"/></g></g></g></svg>