<svg xmlns="http://www.w3.org/2000/svg" viewBox="0 0 28.86 29.01"><defs><style>.cls-1{opacity:0.3;}</style></defs><title>Asset 1</title><g id="Layer_2" data-name="Layer 2"><g id="content"><g class="cls-1"><path d="M24.15,13.26v6.68a15.9,15.9,0,0,1-.31,4.5l-.08.26a4.48,4.48,0,0,1-2.68,2.66l-.23.07a15.86,15.86,0,0,1-4.5.31H9.06a15.85,15.85,0,0,1-4.5-.31l-.25-.08a4.48,4.48,0,0,1-2.66-2.68l-.07-.23a15.9,15.9,0,0,1-.31-4.5V12.63a15.89,15.89,0,0,1,.31-4.5l.07-.25A4.48,4.48,0,0,1,4.33,5.21l.23-.07a15.86,15.86,0,0,1,4.5-.31h6.68a.64.64,0,0,0,0-1.27H9.06a16.59,16.59,0,0,0-4.83.35L3.92,4A5.78,5.78,0,0,0,.45,7.46l-.1.33A16.63,16.63,0,0,0,0,12.63v7.32a16.64,16.64,0,0,0,.35,4.84l.09.3A5.78,5.78,0,0,0,3.9,28.55l.33.1A16.58,16.58,0,0,0,9.06,29h7.31a16.59,16.59,0,0,0,4.83-.35l.3-.09A5.78,5.78,0,0,0,25,25.11l.1-.33a16.64,16.64,0,0,0,.35-4.84V13.26a.64.64,0,1,0-1.27,0Z"/><path d="M23.77,10.18a5.09,5.09,0,1,0-5.08-5.09,5.09,5.09,0,0,0,5.08,5.09Zm0-1.27a3.82,3.82,0,1,1,3.81-3.82,3.81,3.81,0,0,1-3.81,3.82Z"/></g></g></g></svg>